<?xml version="1.0" encoding="UTF-8"?>
<svg width="640" height="360" viewBox="0 0 640 360" xmlns="http://www.w3.org/2000/svg">
  <defs>
    <linearGradient id="bgGradient" x1="0" y1="0" x2="1" y2="1">
      <stop offset="0%" stop-color="#021030" />
      <stop offset="60%" stop-color="#04235f" />
      <stop offset="100%" stop-color="#020b1c" />
    </linearGradient>
    <linearGradient id="glass" x1="0" y1="0" x2="1" y2="1">
      <stop offset="0%" stop-color="#80d0ff" stop-opacity="0.8" />
      <stop offset="100%" stop-color="#0a2e6a" stop-opacity="0.2" />
    </linearGradient>
    <linearGradient id="pulse" x1="0" y1="0" x2="1" y2="0">
      <stop offset="0%" stop-color="#6be6ff" />
      <stop offset="50%" stop-color="#23a5ff" />
      <stop offset="100%" stop-color="#4f9bfc" />
    </linearGradient>
    <filter id="frost" x="-20%" y="-20%" width="140%" height="140%">
      <feGaussianBlur in="SourceGraphic" stdDeviation="2" result="blur" />
      <feBlend in="SourceGraphic" in2="blur" mode="screen" />
    </filter>
  </defs>
  <rect width="640" height="360" fill="url(#bgGradient)" />
  <rect x="60" y="50" width="520" height="260" rx="32" ry="32" fill="url(#glass)" stroke="#8bc9ff" stroke-width="1" filter="url(#frost)" />
  <g opacity="0.85">
    <rect x="120" y="120" width="400" height="160" rx="28" ry="28" fill="#010f1f" opacity="0.9" />
    <rect x="130" y="140" width="360" height="100" rx="20" ry="20" fill="url(#pulse)" opacity="0.7" />
    <rect x="140" y="155" width="320" height="6" fill="#a7f5ff" opacity="0.85" />
    <rect x="140" y="168" width="250" height="6" fill="#5da6ff" opacity="0.75" />
    <rect x="140" y="181" width="290" height="6" fill="#9ff1ff" opacity="0.6" />
    <rect x="140" y="194" width="180" height="6" fill="#52c4ff" opacity="0.7" />
  </g>
  <text x="320" y="198" font-size="30" font-family="'Share Tech Mono', monospace" text-anchor="middle" letter-spacing="0.28em" fill="#e3f7ff" opacity="0.95">
    AZURE FROSTED LAYER
  </text>
  <circle cx="320" cy="238" r="40" fill="none" stroke="#7fd8ff" stroke-width="1.8" opacity="0.6" />
  <circle cx="320" cy="238" r="70" fill="none" stroke="#3ca1ff" stroke-width="1" opacity="0.4" />
  <circle cx="320" cy="238" r="95" fill="none" stroke="#1b89ff" stroke-width="0.8" opacity="0.25" />
</svg>
